<svg xmlns="http://www.w3.org/2000/svg" version="1.2" preserveAspectRatio="none" viewBox="0 0 134.22 87.57" class="ng-element" data-id="9db1f49a62a24890ab319cfc0aea8f69"><g id="8bc822c7-fa26-403d-9ad6-0407bb02c71b_1578488031647"><g id="72edfdf6-d819-42b8-8084-78e85740d2f0_1578488031647"><g><g><path fill="#f58120" d="M37.89,28a42.81,42.81,0,0,0-2.19,6.68,23.82,23.82,0,0,1,1.69,3.11,41.64,41.64,0,0,1,2.51-8.88A9.78,9.78,0,0,1,37.89,28Zm2,.91a9.78,9.78,0,0,1-2-.91,42.81,42.81,0,0,0-2.19,6.68,23.82,23.82,0,0,1,1.69,3.11A41.64,41.64,0,0,1,39.9,28.89ZM37,40.67a26.81,26.81,0,0,0-1.69-4,45.48,45.48,0,0,0-.85,8.75A42,42,0,0,0,36.82,59,27.8,27.8,0,0,0,38,54.82a35.41,35.41,0,0,1-1.3-9.4A46.77,46.77,0,0,1,37,40.67ZM93.54,35.3c-.12-.59-.28-1.21-.44-1.78-2.85-10.66-9.42-19.19-17.8-23.19A24.58,24.58,0,0,0,64.85,7.85h-.3c-10.39,0-19.56,6.59-25,16.61A34.57,34.57,0,0,0,37.89,28a42.81,42.81,0,0,0-2.19,6.68c-.16.67-.3,1.33-.41,2a45.48,45.48,0,0,0-.85,8.75A42,42,0,0,0,36.82,59c.25.75.52,1.51.84,2.24C43.3,75.64,55.35,87.57,64.55,87.57c9,0,20.56-11.25,26.39-25.15.31-.68.59-1.37.84-2.08a43.19,43.19,0,0,0,2.88-14.92A45.69,45.69,0,0,0,93.54,35.3Zm-3,21.44c-.25.84-.54,1.69-.86,2.51C84.5,72.78,73,83.92,64.55,83.92c-8.79,0-20.82-12-25.68-26.2v0c-.32-1-.59-1.9-.84-2.88a35.41,35.41,0,0,1-1.3-9.4A46.77,46.77,0,0,1,37,40.67a28.1,28.1,0,0,1,.41-2.9,41.64,41.64,0,0,1,2.51-8.88A26.1,26.1,0,0,1,41,26.29C46,16,54.64,9,64.55,9,77.42,9,88.26,20.9,91.41,36.24c.19.8.32,1.6.44,2.4a44.52,44.52,0,0,1,.52,6.78A37.78,37.78,0,0,1,90.52,56.74ZM36.73,45.42A46.77,46.77,0,0,1,37,40.67a26.81,26.81,0,0,0-1.69-4,45.48,45.48,0,0,0-.85,8.75A42,42,0,0,0,36.82,59,27.8,27.8,0,0,0,38,54.82,35.41,35.41,0,0,1,36.73,45.42ZM37.89,28a42.81,42.81,0,0,0-2.19,6.68,23.82,23.82,0,0,1,1.69,3.11,41.64,41.64,0,0,1,2.51-8.88A9.78,9.78,0,0,1,37.89,28Z" vector-effect="non-scaling-stroke"></path><path fill="#f58120" d="M76.53,67.19a17.43,17.43,0,0,1-24,0A46.86,46.86,0,0,0,76.53,67.19Z" vector-effect="non-scaling-stroke"></path><path fill="#f58120" d="M69.87,29.42c0,5.88.68,14.35-5.32,14.35s-5.32-8.47-5.32-14.35c0-5.21-1.53-7.74-1.89-8.29.38.27,2,1.85,2.6,7.1.66,5.66-.18,13.58,4.61,13.58s4-7.92,4.61-13.58c.59-5.25,2.21-6.83,2.6-7.1C71.4,21.68,69.87,24.21,69.87,29.42Z" vector-effect="non-scaling-stroke"></path><path fill="#f58120" d="M64.55,7.77S68.91-1.45,83,.2c12.36,1.45,10.82,12.53,21,13.89,0,0-10.4,1.87-15.69-4.77-4.18-5.26-11.67-2-13,1.19Z" vector-effect="non-scaling-stroke"></path><rect fill="#f58120" height="2.28" width="10.55" y="49.41" x="49.39" vector-effect="non-scaling-stroke"></rect><rect fill="#f58120" height="2.28" width="10.57" y="49.41" x="69.16" vector-effect="non-scaling-stroke"></rect></g><g><path fill="#f58120" d="M38,54.82A27.8,27.8,0,0,1,36.82,59C33.48,68.1,25.7,75.7,20,75.7c-7.49,0-18.51-13.05-18.51-25.58C1.51,37.18,9.81,25.9,20,25.9c6.32,0,11.94,4.36,15.27,10.77a26.81,26.81,0,0,1,1.69,4,28.1,28.1,0,0,1,.41-2.9,23.82,23.82,0,0,0-1.69-3.11,20.86,20.86,0,0,0-8.54-7.85,16.13,16.13,0,0,0-7-1.66H20c-11,0-20,11.2-20,25,0,13.53,11.73,28,20,28,6,0,13.78-7.6,17.64-17a28.58,28.58,0,0,0,1.21-3.47v0C38.55,56.74,38.28,55.8,38,54.82Z" vector-effect="non-scaling-stroke"></path><path fill="#f58120" d="M12,64.6A31.09,31.09,0,0,0,28,64.6,11.59,11.59,0,0,1,12,64.6Z" vector-effect="non-scaling-stroke"></path><path fill="#f58120" d="M20,47.74c3.19,0,2.63-5.28,3.06-9,.45-4,1.79-4.78,1.79-4.78s-1.31,1.65-1.31,5.57S24,49,20,49s-3.54-5.63-3.54-9.55-1.32-5.57-1.32-5.57,1.34.83,1.8,4.78C17.38,42.46,16.81,47.74,20,47.74Z" vector-effect="non-scaling-stroke"></path><path fill="#f58120" d="M41,26.29a26.1,26.1,0,0,0-1.12,2.6,9.78,9.78,0,0,1-2-.91,7.7,7.7,0,0,1-2.12-1.85c-2.74-3.43-7.58-1.37-8.61.68a.75.75,0,0,1-.07.12L20.2,25.15l-.18,0s2.87-6.12,12.23-5c4,.46,5.75,2.4,7.33,4.38C40.06,25.08,40.51,25.69,41,26.29Z" vector-effect="non-scaling-stroke"></path><rect fill="#f58120" height="1.52" width="7.02" y="52.78" x="9.93" vector-effect="non-scaling-stroke"></rect><rect fill="#f58120" height="1.52" width="7.02" y="52.78" x="23.07" vector-effect="non-scaling-stroke"></rect></g><g><path fill="#f58120" d="M115.2,26.81a16.16,16.16,0,0,0-7-1.66h-.19c-5.93,0-11.27,3.24-15,8.37a27.15,27.15,0,0,0-1.69,2.72c.19.8.32,1.6.44,2.4a29,29,0,0,1,1.69-3.34c3.38-5.66,8.62-9.4,14.51-9.4,10.18,0,18.49,11.28,18.49,24.22,0,12.53-11,25.58-18.49,25.58-5.41,0-12.69-6.84-16.27-15.36a32,32,0,0,1-1.26-3.6c-.25.84-.54,1.69-.86,2.51a30.88,30.88,0,0,0,1.28,3.17c4,8.79,11.38,15.73,17.11,15.73,8.27,0,20-14.5,20-28C128.07,39.5,122.73,30.4,115.2,26.81Z" vector-effect="non-scaling-stroke"></path><path fill="#f58120" d="M100.08,64.6a31.08,31.08,0,0,0,15.93,0,11.59,11.59,0,0,1-15.93,0Z" vector-effect="non-scaling-stroke"></path><path fill="#f58120" d="M108.05,47.74c3.19,0,2.63-5.28,3.06-9,.46-4,1.79-4.78,1.79-4.78s-1.31,1.65-1.31,5.57S112,49,108.05,49s-3.54-5.63-3.54-9.55-1.31-5.57-1.31-5.57,1.34.83,1.79,4.78C105.42,42.46,104.86,47.74,108.05,47.74Z" vector-effect="non-scaling-stroke"></path><path fill="#f58120" d="M108.05,25.11s2.9-6.13,12.24-5c8.21,1,7.19,8.33,13.93,9.24,0,0-6.91,1.24-10.42-3.18-2.78-3.49-7.76-1.3-8.67.8Z" vector-effect="non-scaling-stroke"></path><rect fill="#f58120" height="1.52" width="7.02" y="52.78" x="97.97" vector-effect="non-scaling-stroke"></rect><rect fill="#f58120" height="1.52" width="7.02" y="52.78" x="111.12" vector-effect="non-scaling-stroke"></rect></g></g></g></g></svg>