<svg xmlns="http://www.w3.org/2000/svg" version="1.2" preserveAspectRatio="none" viewBox="0 0 103 116.01" class="ng-element" data-id="7a2d8b63a41c4fc182086d83e94c5736"><g id="97f8e804-4d67-4159-b549-a114701a136b_1578488031645"><g id="82a7c5ee-50f9-4ea8-9e3e-bef68001532c_1578488031645"><g><polygon fill="#f58120" points="103 93.69 51.49 116.01 0 93.69 1.19 93.17 51.5 112.38 101.64 93.1 103 93.69" vector-effect="non-scaling-stroke"></polygon><polygon fill="#f58120" points="88.15 83.34 51.49 103.61 14.84 83.34 16.04 82.82 51.5 97.86 86.58 82.66 88.15 83.34" vector-effect="non-scaling-stroke"></polygon><path fill="#f58120" d="M46.64,86C45.56,85.72,22,84,20.43,66.71c-1.82-20,17.47-33.87,18.93-45.9,0,15.86-16.94,28.91-14.61,46.81C26.87,83.88,45.68,85.66,46.64,86Z" vector-effect="non-scaling-stroke"></path><path fill="#f58120" d="M35.29,44.2C46.79,25.88,43.11,0,43.11,0S66.8,13.29,65.88,41.48c0,0-7.77-26.13-18-32.73C47.86,8.75,48,32.49,35.29,44.2Z" vector-effect="non-scaling-stroke"></path><path fill="#f58120" d="M51.49,86s-4.85-11.08,7.87-25.42c12.58-14.17,12.3-25,12.3-25S88.15,54,72.41,79.22c0,0,7.08-25.55.73-34.85,0,0-3.18,11.05-11.62,18.57A28.78,28.78,0,0,0,51.49,86Z" vector-effect="non-scaling-stroke"></path><path fill="#f58120" d="M44.49,39.49s-12,12.19-10.8,23.92S47.86,81,47.86,81s-10.33-7.25-11-17.76C36.13,52.12,44.49,39.49,44.49,39.49Z" vector-effect="non-scaling-stroke"></path></g></g></g></svg>